<svg width="60" height="60" viewBox="0 0 60 60" fill="none" xmlns="http://www.w3.org/2000/svg">
<path fill-rule="evenodd" clip-rule="evenodd" d="M56.25 30C56.25 29.5028 56.0525 29.0259 55.7008 28.6742C55.3492 28.3226 54.8723 28.125 54.375 28.125H10.1512L21.9525 16.3275C22.1268 16.1532 22.2651 15.9463 22.3595 15.7185C22.4538 15.4907 22.5024 15.2466 22.5024 15C22.5024 14.7535 22.4538 14.5094 22.3595 14.2816C22.2651 14.0538 22.1268 13.8469 21.9525 13.6725C21.7782 13.4982 21.5712 13.3599 21.3434 13.2656C21.1157 13.1712 20.8715 13.1227 20.625 13.1227C20.3785 13.1227 20.1343 13.1712 19.9066 13.2656C19.6788 13.3599 19.4718 13.4982 19.2975 13.6725L4.29749 28.6725C4.12288 28.8467 3.98435 29.0536 3.88982 29.2814C3.7953 29.5092 3.74664 29.7534 3.74664 30C3.74664 30.2467 3.7953 30.4909 3.88982 30.7187C3.98435 30.9465 4.12288 31.1534 4.29749 31.3275L19.2975 46.3275C19.4718 46.5019 19.6788 46.6402 19.9066 46.7345C20.1343 46.8289 20.3785 46.8774 20.625 46.8774C20.8715 46.8774 21.1157 46.8289 21.3434 46.7345C21.5712 46.6402 21.7782 46.5019 21.9525 46.3275C22.1268 46.1532 22.2651 45.9463 22.3595 45.7185C22.4538 45.4907 22.5024 45.2466 22.5024 45C22.5024 44.7535 22.4538 44.5094 22.3595 44.2816C22.2651 44.0538 22.1268 43.8469 21.9525 43.6725L10.1512 31.875H54.375C54.8723 31.875 55.3492 31.6775 55.7008 31.3259C56.0525 30.9742 56.25 30.4973 56.25 30Z" fill="white"/>
</svg>
